<?xml version="1.0" encoding="utf-8"?>
<!-- Generator: Adobe Illustrator 19.2.1, SVG Export Plug-In . SVG Version: 6.00 Build 0)  -->
<svg version="1.1" id="layer" xmlns="http://www.w3.org/2000/svg" xmlns:xlink="http://www.w3.org/1999/xlink" x="0px" y="0px"
	 viewBox="0 0 652 652" style="enable-background:new 0 0 652 652;" xml:space="preserve">
<style type="text/css">
	.st0{fill:#004B91;}
	.st1{fill:none;stroke:#FFFFFF;stroke-width:4.6697;}
	.st2{fill:#A4A4A4;}
</style>
<rect x="20.7" y="335.5" class="st0" width="24.2" height="24.2"/>
<rect x="20.7" y="335.5" class="st1" width="24.2" height="24.2"/>
<rect x="20.7" y="284.9" class="st0" width="24.2" height="24.2"/>
<rect x="20.7" y="284.9" class="st1" width="24.2" height="24.2"/>
<rect x="71.3" y="284.9" class="st2" width="24.2" height="24.2"/>
<rect x="71.3" y="284.9" class="st1" width="24.2" height="24.2"/>
<rect x="71.3" y="335.5" class="st2" width="24.2" height="24.2"/>
<rect x="71.3" y="335.5" class="st1" width="24.2" height="24.2"/>
<rect x="44.9" y="335.5" class="st0" width="26.4" height="24.2"/>
<rect x="44.9" y="335.5" class="st1" width="26.4" height="24.2"/>
<rect x="44.9" y="284.9" class="st0" width="26.4" height="24.2"/>
<rect x="44.9" y="284.9" class="st1" width="26.4" height="24.2"/>
<rect x="20.7" y="309.1" class="st0" width="24.2" height="26.4"/>
<rect x="20.7" y="309.1" class="st1" width="24.2" height="26.4"/>
<rect x="71.3" y="309.1" class="st2" width="24.2" height="26.4"/>
<rect x="71.3" y="309.1" class="st1" width="24.2" height="26.4"/>
<rect x="44.9" y="309.1" class="st2" width="26.4" height="26.4"/>
<rect x="44.9" y="309.1" class="st1" width="26.4" height="26.4"/>
<g>
	<path class="st0" d="M189.8,331v2.1c0,7.8-0.1,14.8-6.7,20.2c-6.6,5.3-14.6,5.2-23,5.2c-19.7,0-34.1-0.9-34.1-27v-18.4
		c0-23.5,12.9-27,34.1-27c19.9,0,29.2,2,29.6,23.4v2.8h-19.9v-2.8c-0.7-6.4-5.2-6.8-11.8-6.8c-11,0-12.1,3.3-12.1,13.5v11.1
		c0,10.6,0.5,14.7,12.1,14.7c8,0,11.9-0.6,11.9-8.9V331H189.8z"/>
	<path class="st0" d="M213.8,299.3h-16.6v-12.5h16.6V299.3z M213.8,357.9h-16.6v-49.8h16.6V357.9z"/>
	<path class="st0" d="M261.2,320H242v22.3c0.1,2.9,0.7,4.2,3.8,4.2c4.3,0,4.2-3,4.3-6.5l0.1-2.7h13.2v4.5c0,13.6-5.1,16.6-18.7,16.6
		c-10.6,0-19.4-1.3-19.4-13.9V320h-6.2v-12h6.2v-10.5H242v10.5h19.2V320z"/>
	<path class="st0" d="M285.5,299.3h-16.6v-12.5h16.6V299.3z M285.5,357.9h-16.6v-49.8h16.6V357.9z"/>
	<path class="st0" d="M327.1,357.9l0.6-9.6h-0.8c-2.3,7.7-8.1,10.2-15.2,10.2c-10,0-17.2-4.2-17.2-16.3v-34.1h16.6v29.7
		c0,4.6,0.5,8.2,6.1,8.2c4.5,0,9.4-2.3,9.4-7.2v-30.7h16.6v49.8H327.1z"/>
	<path class="st0" d="M383.7,322.2c-0.6-4.2-4.2-4.2-6.8-4.2c-8.7,0-8.7,1-8.7,4c0,2.5,0.2,4.2,8.7,4.4c17.2,0.4,24.8,1.3,24.8,15.3
		c0,14.6-11.5,16.8-24.8,16.8c-13.2,0-24.8,0.3-24.8-16.1h16.6c0,5.6,4.2,5.6,8.2,5.6c7.5,0,8.7-0.5,8.7-4.4c0-4.9-2.9-4.9-8.7-4.9
		c-21.1,0-24.8-4.7-24.8-14.8c0-16,10.7-16.3,24.8-16.3c9.3,0,22.4,0.1,22.4,12.3v2.4H383.7z"/>
	<polygon class="st2" points="442.9,357.9 423.5,357.9 423.5,303.2 405,303.2 405,286.7 462.4,286.7 462.4,303.2 442.9,303.2 	"/>
	<path class="st2" d="M509.5,341.3c0,7.5-2.5,11.8-6.9,14.2c-4.4,2.4-10.5,2.9-17.9,2.9c-20,0-24.8-6.8-24.8-25.4
		c0-19.2,4.4-25.5,24.8-25.5c19,0,24.8,5.2,24.8,25.5v2.8h-33c0,8.7,1.4,11.3,8.2,11.3c5.1,0,8.4-0.6,8.4-5.8H509.5z M492.9,326.8
		c0-7.4-2.8-7.9-8.4-7.9c-5.9,0-7.7,1.3-7.9,7.9H492.9z"/>
	<path class="st2" d="M564.3,338c0,9.3-1.6,14.4-5.6,17.2c-3.9,2.8-10,3.3-18.9,3.3c-19.6,0-24.3-5.8-24.3-25.4
		c0-16.9,3.5-25.5,24.3-25.5c14.6,0,24.6,1.5,24.6,19.3h-16.6c0.1-2.7-0.2-4.3-1.4-5.3c-1.2-1-3.1-1.4-6.6-1.4
		c-5.9,0-7.6,1.6-7.6,13c0,11.7,1.4,12.9,7.6,12.9c7.5,0,7.9-1.8,7.9-8H564.3z"/>
	<path class="st2" d="M588.5,317.4h0.7c2.4-7.9,7.3-9.9,15.2-9.9c11.2,0,16.3,5.2,16.3,15.9v34.5h-16.6v-30.7
		c-0.1-4.8-1.5-7.2-6.9-7.2c-7.4,0-8.7,4.4-8.7,10.4v27.4h-16.6v-71.2h16.6V317.4z"/>
</g>
</svg>
